<?xml version="1.0" standalone="no"?>
<!DOCTYPE svg PUBLIC "-//W3C//DTD SVG 20010904//EN"
 "http://www.w3.org/TR/2001/REC-SVG-20010904/DTD/svg10.dtd">
<svg version="1.0" xmlns="http://www.w3.org/2000/svg"
 width="512.000000pt" height="512.000000pt" viewBox="0 0 512.000000 512.000000"
 preserveAspectRatio="xMidYMid meet">
<metadata>
Created by potrace 1.11, written by Peter Selinger 2001-2013
</metadata>
<g transform="translate(0.000000,512.000000) scale(0.100000,-0.100000)"
fill="#000000" stroke="none">
<path d="M2305 4869 c-300 -11 -523 -61 -725 -163 -69 -35 -143 -69 -165 -76
-54 -17 -219 -99 -291 -145 -33 -21 -93 -66 -134 -100 -41 -34 -104 -81 -140
-105 -89 -59 -233 -208 -303 -311 -75 -114 -127 -226 -176 -384 -22 -71 -59
-182 -81 -245 -44 -124 -81 -289 -104 -470 -21 -164 -22 -1015 -1 -1180 28
-218 71 -399 127 -539 17 -42 37 -101 45 -131 41 -159 103 -301 181 -420 58
-87 183 -234 207 -244 13 -5 5 -16 -39 -53 -30 -27 -72 -68 -92 -93 -21 -25
-56 -65 -79 -90 -23 -25 -54 -62 -70 -83 l-27 -37 2004 0 2005 0 -33 95 c-18
52 -46 118 -63 148 l-30 53 57 49 c180 155 308 362 391 630 22 72 55 173 74
225 39 105 77 267 104 435 15 95 17 184 17 650 0 514 -1 546 -22 670 -31 180
-67 322 -112 440 -21 55 -50 143 -65 195 -66 228 -173 410 -326 554 -135 127
-315 243 -636 410 -235 123 -307 155 -434 196 -180 59 -246 73 -434 95 -190
22 -426 31 -630 24z"/>
</g>
</svg>
